<?xml version="1.0" standalone="no"?>
<!DOCTYPE svg PUBLIC "-//W3C//DTD SVG 20010904//EN"
 "http://www.w3.org/TR/2001/REC-SVG-20010904/DTD/svg10.dtd">
<svg version="1.0" xmlns="http://www.w3.org/2000/svg"
 width="217.000000pt" height="217.000000pt" viewBox="0 0 217.000000 217.000000"
 preserveAspectRatio="xMidYMid meet">
<metadata>
Created by potrace 1.11, written by Peter Selinger 2001-2013
</metadata>
<g transform="translate(0.000000,217.000000) scale(0.100000,-0.100000)"
fill="#000000" stroke="none">
<path d="M1081 2149 c-1 -22 -57 -126 -95 -174 -111 -144 -227 -177 -427 -120
-60 17 -168 70 -197 97 -12 12 -22 19 -22 17 0 -3 14 -45 31 -95 46 -136 73
-253 99 -439 6 -44 13 -91 15 -105 2 -14 7 -50 10 -80 3 -30 8 -66 10 -80 2
-14 6 -56 10 -95 4 -38 8 -71 9 -72 1 -2 32 13 68 32 141 75 286 107 483 108
72 0 153 -3 180 -7 129 -18 269 -64 348 -113 22 -14 40 -23 42 -21 3 3 9 58
20 168 2 25 7 61 10 80 3 19 8 58 10 85 3 28 8 57 10 65 2 8 7 39 10 69 4 30
9 63 11 75 2 12 7 35 10 51 12 70 46 196 74 279 16 50 30 91 30 93 0 2 -15 -7
-32 -20 -87 -65 -245 -119 -353 -119 -77 -1 -152 31 -209 88 -45 45 -116 151
-139 209 -9 22 -16 33 -16 24z"/>
<path d="M985 952 c-230 -24 -432 -100 -607 -227 l-46 -34 -1 -303 c0 -184 4
-313 10 -329 13 -33 47 -49 105 -49 51 0 100 21 108 47 6 21 16 152 31 403 8
131 13 181 19 187 6 6 956 7 962 1 6 -6 11 -54 18 -178 6 -95 16 -233 21 -300
1 -19 3 -52 4 -73 2 -59 38 -87 113 -87 52 0 63 4 87 28 l28 27 0 313 0 313
-66 47 c-36 26 -75 52 -86 58 -11 6 -41 22 -66 36 -84 47 -257 99 -379 113
-66 8 -213 12 -255 7z"/>
</g>
</svg>
